<svg xmlns="http://www.w3.org/2000/svg" viewBox="0 0 1080 1080" style="enable-background:new 0 0 1080 1080" xml:space="preserve"><path style="fill:#333" d="M-8.72-10.63h1096.8v1096.8H-8.72z"/><path d="M730.71 695.24c-3.3-25.15-10.37-50.5-21.73-75.88-27.79-62.03-81.35-103.38-132.49-146.59-25.7-21.72-50.39-44.83-73.33-69.21-20.47-21.79-28.13-48.94-24.49-78.62 3.51-28.91 21.86-49.89 46.21-52.35 23.61-2.39 44.52 13.36 52.28 42.7 5.7 21.69 8.03 44.18 12.04 67.32h126.85c-8.77-41.32-13.19-80.51-25.74-117.07-23.07-67.05-74.2-102.88-140.82-105.4-84.52-3.17-142.2 28.37-174.14 95.25-45.03 94.14-24.22 205.61 55.52 281.4 38.59 36.7 81.36 69.28 121.76 104.22 27.15 23.44 48.43 50.59 53.83 86.68 5.47 36.5-18.31 73.7-51.37 80.11-31.23 6.04-54.24-12.75-64.15-54.34-4.52-19.12-6.41-38.82-9.44-57.91H357.25c3.51 28.74 4.69 55.65 10.36 81.73 15.08 69.72 48.91 126.28 128.61 140.24 78.79 13.86 150.36-1.96 196.91-69.68 21.55-31.35 33.49-63.97 37.76-97.23-.2-18.43-.45-36.85-.18-55.37z" style="fill:#fff"/></svg>