<svg version="1.1" id="Layer_1" xmlns="http://www.w3.org/2000/svg" x="0" y="0" viewBox="0 0 145 23" style="enable-background:new 0 0 145 23" xml:space="preserve"><style>.st0{fill-rule:evenodd;clip-rule:evenodd}</style><path class="st0" d="M54.6 21.85c-1.21 0-2.35.02-3.49-.02-.14 0-.37-.26-.4-.43-.55-2.74-1.07-5.48-1.61-8.22-.15-.74-.17-.75-1.01-.56v9.19h-3.84V.27c.03-.02.06-.07.08-.07 1.94.03 3.89-.05 5.82.14 2.45.24 3.96 1.88 4.32 4.41.26 1.8.19 3.57-.64 5.22-.25.5-.6.95-1.02 1.31-.38.32-.4.61-.31 1.02.68 3.02 1.35 6.04 2.01 9.06.04.14.05.28.09.49zM48.12 9.33c1.32.21 2.06-.25 2.44-1.47.28-.93.29-1.88.08-2.82-.3-1.33-1.18-1.88-2.52-1.61v5.9zm14.96 12.53V.28c.06-.03.12-.08.17-.08 1.72.03 3.45-.02 5.16.13 2.88.25 4.85 1.95 5.39 4.81.75 3.94.78 7.92.01 11.85-.64 3.26-2.84 4.85-6.3 4.86-1.46.01-2.92.01-4.43.01zm4.15-18.23v14.84c.85.05 1.59-.16 1.99-.86.32-.57.61-1.24.63-1.88.1-2.96.13-5.91.13-8.87 0-.61-.18-1.25-.39-1.83-.38-1-1.27-1.5-2.36-1.4zM83.3 15.42h-1.56v-3.15h4.89v10.1c-.55 0-1.16.16-1.55-.05-.36-.19-.48-.8-.78-1.34-.07.13-.12.25-.19.34-1.91 2.37-5.32 1.61-6.69-.16-.93-1.19-1.42-2.54-1.64-3.98-.63-4.12-.66-8.24.43-12.3.37-1.39 1.03-2.64 2.12-3.67 1.68-1.59 6.19-1.44 7.42 1.64.56 1.39.72 2.83.75 4.31.01.4 0 .8 0 1.24h-3.66c0-.81.05-1.62-.02-2.41-.05-.56-.23-1.11-.42-1.65-.16-.45-.55-.82-1.03-.73-.34.07-.81.4-.9.71-.33 1.1-.69 2.24-.73 3.37-.11 2.75-.07 5.5-.02 8.25.02.8.23 1.61.47 2.38.26.82.79 1.17 1.43 1.14.6-.03 1.12-.45 1.29-1.23.18-.9.25-1.81.39-2.81M10.79 6.8H7.03c-.12-.69-.19-1.35-.36-2-.22-.86-.84-1.33-1.54-1.26-.73.07-1.27.7-1.37 1.55-.11.88.12 1.69.72 2.33.68.72 1.41 1.41 2.17 2.05 1.52 1.28 3.1 2.51 3.93 4.35 1.04 2.32.99 4.64-.47 6.77-1.38 2.01-3.5 2.48-5.84 2.07C1.91 22.25.9 20.57.46 18.5c-.17-.77-.2-1.57-.31-2.42h3.68c.09.57.15 1.15.28 1.72.29 1.23.98 1.79 1.9 1.61.98-.19 1.68-1.29 1.52-2.38-.16-1.07-.79-1.88-1.6-2.57-1.2-1.04-2.47-2-3.61-3.09C-.04 9.12-.66 5.82.67 3.03 1.62 1.05 3.33.11 5.83.21 7.8.29 9.32 1.35 10 3.33c.4 1.09.53 2.25.79 3.47m90.97 9.23c.08.62.12 1.19.24 1.74.27 1.23.94 1.8 1.88 1.66.98-.15 1.66-1.16 1.55-2.28-.11-1.14-.78-1.96-1.61-2.69-1.17-1.03-2.43-1.98-3.56-3.06-2.35-2.24-2.98-5.48-1.69-8.29.94-2.04 2.63-2.99 5.17-2.9 2 .07 3.48 1.16 4.22 3.16.41 1.1.6 2.26.56 3.43h-3.62c-.06-.56-.1-1.12-.18-1.67a2.97 2.97 0 0 0-.27-.81c-.25-.5-.68-.78-1.27-.78-.58.01-1.02.28-1.26.78-.45.92-.39 1.85.19 2.68.43.62.98 1.17 1.54 1.7 1.28 1.22 2.73 2.29 3.87 3.62 1.87 2.19 2.17 4.74 1.04 7.36-.99 2.3-3.23 3.39-6.04 3.06-2.14-.25-3.73-1.86-4.14-4.22-.11-.68-.19-1.37-.22-2.07-.01-.14.22-.41.35-.41 1.08-.02 2.15-.01 3.25-.01m-80.1 5.83h-9.42V.2h9.27c0 1.03.02 2.02-.02 3.01 0 .12-.33.31-.51.31-1.33.03-2.65.02-3.98.02h-.67v5.51h3.77v3.53h-3.77v5.92h5.33v3.36"/><path class="st0" d="M92.58 12.61v5.92h5.34v3.33H88.5V.2h9.22v3.32h-5.13v5.54h3.72v3.55h-3.73M33.9.2h8.47v3.34h-4.65v5.78h3.44v3.52h-3.45v9.02H33.9V.2m-6.25 18.34h5.31v3.32h-9.42V.2h4.11v18.34M56.49.2h3.77v21.66h-3.77V.2m75.1 8.47c-.12-1.19-.19-2.3-.35-3.41-.08-.55-.21-1.24-.94-1.26-.71-.02-.86.67-.94 1.18-.21 1.34-.45 2.7-.45 4.05-.01 2.56.13 5.13.24 7.69.02.48.15.97.35 1.41.12.28.45.65.7.65.29 0 .75-.26.86-.53.27-.63.46-1.3.56-1.98.12-.78.12-1.57.17-2.39h3.79c-.09 2.33-.05 4.65-1.35 6.73-1.59 2.53-6.21 2.76-8.07-.04-.93-1.4-1.37-2.96-1.58-4.58-.4-3.17-.43-6.34.09-9.5.23-1.41.62-2.78 1.36-4.03 1.11-1.88 2.76-2.67 4.94-2.42 2 .23 3.26 1.36 3.9 3.2.59 1.68.65 3.42.59 5.22.01.01-3.87.01-3.87.01zm3.39-.47c.05-1.61-.06-3.14-.6-4.61-.59-1.64-1.73-2.64-3.52-2.85-1.96-.22-3.5.51-4.36 2.24-.6 1.22-1.04 2.51-1.3 3.85-.59 3.04-.49 6.12-.13 9.18.18 1.5.57 2.95 1.37 4.27 1.68 2.75 5.65 2.41 7.05.63 1.48-1.88 1.49-4.1 1.59-6.32h-2.8c-.05.68-.05 1.34-.17 1.97-.15.75-.36 1.5-.65 2.2-.22.52-.72.76-1.32.73-.58-.03-.87-.42-1.07-.89-.14-.32-.24-.65-.3-.99-.56-3.69-.51-7.39-.18-11.08.07-.77.38-1.53.65-2.27.17-.46.54-.76 1.1-.74.55.01.88.33 1.09.77.14.29.28.6.32.92.14.98.23 1.97.35 3l2.88-.01zm-11.64 14.12c-1.65.11-2.56-.22-4.25-1.47-.22.21-.45.44-.69.64-1.54 1.27-3.28 1.69-5.14.95-1.89-.75-2.76-2.36-3.02-4.31-.33-2.47.57-4.6 2.1-6.42.8-.95.86-1.67.31-2.74-.85-1.65-1.21-3.45-.84-5.32.47-2.33 2.48-3.67 5.05-3.41 2.04.2 3.59 2.05 3.69 4.24.09 2-.7 3.58-1.98 5.01-1.02 1.14-1.01 1.15-.28 2.52.26.5.54 1 .94 1.49l.58-2.91 2.96.64c-.18 1.75-.55 3.4-1.13 5.01-.15.42-.47 1.05-.31 1.27.36.49.94.86 1.51 1.13.37.18.53.31.52.73-.04.97-.03 1.94-.02 2.95zm-3.97-7.58-.19.03c-.54-1.02-1.09-2.03-1.6-3.07-.58-1.18-.57-1.2.3-2.18.96-1.08 1.87-2.2 2.09-3.7.25-1.66-.01-3.2-1.38-4.3-1.29-1.04-2.76-1.05-4.22-.41-1.49.65-2.12 1.93-2.2 3.51-.08 1.69.38 3.28 1.15 4.74.48.91.37 1.48-.29 2.25-1.54 1.79-2.58 3.85-2.32 6.34.2 1.83.97 3.35 2.76 4.04 1.78.68 3.4.25 4.79-1.07l.87-.83c.95 1.13 2.14 1.8 3.72 1.75 0-.75-.01-1.45.01-2.16.01-.31-.13-.42-.38-.58-.57-.36-1.1-.79-1.58-1.26-.15-.15-.16-.56-.09-.8.21-.72.54-1.41.73-2.13.29-1.07.5-2.15.75-3.27l-2.04-.43c0-.02-.88 3.53-.88 3.53zm17.16-7.96c.04-1.45.16-2.88.73-4.22.67-1.58 1.86-2.36 3.52-2.36 1.67 0 2.86.78 3.52 2.36.76 1.82.79 3.73.63 5.65-.07.81-.23 1.62-.48 2.39-.6 1.87-1.9 2.8-3.76 2.77-1.76-.02-3.03-1.01-3.61-2.83-.16-.47-.28-.96-.35-1.45-.11-.76-.14-1.54-.2-2.31zm.41-.25c.13 1.19.18 2.14.36 3.05.3 1.52.95 2.82 2.58 3.21 2.07.5 3.72-.6 4.27-2.81.45-1.81.46-3.64.19-5.47-.16-1.05-.46-2.08-1.22-2.86-1.73-1.81-4.77-1.03-5.57 1.49-.36 1.15-.44 2.41-.61 3.39zm7.52 8.31c.71.88.73.89.01 1.69-.38.42-.8.82-1.27 1.12-.97.61-1.98.6-2.95-.03-.14-.09-.28-.19-.42-.28-1.09-.71-1.53-.67-2.69.25l-.62-.84c.61-1 1.32-1.85 2.41-2.25.96-.35 1.83-.13 2.66.44 1.33.89 1.65.87 2.87-.1zm-7.31 2.1c1.05-.91 2-.74 2.94-.04.22.16.45.31.7.43 1.29.64 3.4-.38 3.64-1.84-1.08.95-2.07.65-3.04-.09-.18-.14-.38-.26-.59-.35-1.27-.6-3.29.39-3.65 1.89z"/><path class="st0" d="M115.24 13.38c.23.47.45.92.67 1.38.56 1.15 1.1 2.32 1.68 3.46.17.33.14.56-.07.84-.96 1.29-2.22 1.2-3-.23-1-1.84-.71-4.12.72-5.45zm-.09.85c-1 1.23-.97 3.64-.01 4.74.59.68 1.43.64 1.88-.11.08-.14.12-.41.06-.55-.62-1.35-1.26-2.68-1.93-4.08zm.8-5.64c-.55-1.25-1.14-2.48-1.08-3.89.01-.25.05-.51.13-.75.19-.59.61-.92 1.26-.93.64 0 1.19.29 1.29.88.13.75.23 1.59 0 2.3-.28.88-.91 1.65-1.39 2.48.01 0-.21-.09-.21-.09zm-.03-.99.25.01c.75-.86 1.22-1.82 1.07-3-.09-.67-.47-1.09-.98-1.07-.51.02-.91.47-.84 1.16.1.98.33 1.94.5 2.9zm26.26-.24c-.1 1.01-.2 2.02-.32 3.03-.02.2-.06.45-.22.6-.24.22-.59.53-.88.51-.33-.02-.84-.29-.92-.53-.25-.77-.45-1.57-.48-2.36-.04-1.39.05-2.79.1-4.19.01-.22.09-.45.17-.67.16-.41.46-.72 1.05-.71.56.01.91.29.99.69.18.92.3 1.85.42 2.78.04.28.01.57.01.86l.08-.01zm-2.35.01c.09.86.17 1.89.33 2.91.04.28.37.52.56.78.19-.26.51-.5.56-.77.35-1.96.36-3.93-.01-5.89-.06-.32-.39-.6-.59-.9-.22.31-.57.61-.62.94-.14.92-.15 1.84-.23 2.93z"/></svg>