<svg xmlns="http://www.w3.org/2000/svg" viewBox="0 0 371.36 370.45" style="enable-background:new 0 0 371.36 370.45" xml:space="preserve"><path d="M134.85 325.17c.11.32.01.67-.31.78l-2.08 1c-.35.17-.67.01-.78-.31-1.53-3.06-4.47-6.79-8.74-8.84-5.9-2.82-10.95-1.58-13.12 2.97-1.73 3.63-.95 7.26 5.4 11.37l1.57 1.02c6.76 4.36 8.51 9.46 5.95 14.82-3.06 6.39-9.49 8.16-16.53 4.8-4.06-1.94-7.36-5.05-9.02-8.11-.19-.29-.09-.64.25-.81l1.89-1.16c.35-.17.62-.04.81.25 2.07 3.18 4.5 5.48 7.64 6.98 5.25 2.51 9.73 1.06 11.78-3.21 1.79-3.73.57-7.31-5.32-11.12l-1.57-1.02c-7-4.55-8.65-9.59-6.03-15.06 2.98-6.22 9.54-8.54 18.09-4.45 4.8 2.3 8.64 6.67 10.12 10.1zm-53.03 12.74c-.22.28-.56.32-.84.09l-1.73-1.39c-.28-.23-.32-.56-.09-.84l10.95-13.67c.15-.19.13-.36-.06-.51l-15.73-12.6c-.19-.15-.36-.13-.51.06l-10.95 13.67c-.22.28-.56.32-.84.09l-1.73-1.39c-.28-.22-.32-.56-.09-.84l24.75-30.91c.23-.28.56-.32.84-.09l1.73 1.39c.28.23.32.56.09.84l-11.33 14.14c-.15.19-.13.36.06.51l15.73 12.6c.19.15.36.13.51-.06l11.33-14.14c.23-.28.56-.32.84-.09l1.73 1.39c.28.22.32.56.09.84l-24.75 30.91zm-40.3-38.31c-.36.12-.69.08-.92-.2l-1.32-1.71c-.26-.33-.18-.62.03-.94l22.61-35.46c.21-.32.51-.32.73-.04l1.43 1.85c.26.33.31.6 0 .98l-5.71 8.99 10.89 14.03 10.12-3.3c.49-.15.73-.04.95.25l1.43 1.85c.22.28.14.57-.22.7l-40.02 13zM56.48 276l-12.21 19.11.11.14 21.58-7.02L56.48 276zm-6.13-41.02c.15.33.12.54-.19.88l-12.52 15.17.25.54 4.37 9.55c.1.22.26.28.48.18l15.71-7.2c.33-.15.65-.03.8.3l.92 2.02c.15.33.03.65-.3.79l-36 16.5c-.33.15-.65.03-.8-.3l-5.7-12.44c-3.2-6.98-1.25-13.09 5.08-15.99 5.13-2.35 9.97-1.14 13.29 3.08l12.72-15.6c.23-.37.58-.33.73 0l1.16 2.52zm-26.46 13.11c-4.64 2.12-5.96 6.29-3.54 11.59l4.35 9.49c.1.22.26.28.48.18l13.96-6.4c.22-.1.28-.26.18-.48l-4.35-9.49c-2.42-5.29-6.39-7.04-11.08-4.89zM8.38 235.33c-.35.08-.64-.11-.71-.46l-4.94-22.81c-.08-.35.11-.64.46-.71l1.99-.43c.35-.08.64.11.71.46l4.27 19.7c.05.24.19.33.43.28l14.18-3.08c.23-.05.33-.19.28-.43l-3.67-16.95c-.08-.35.11-.64.46-.71l1.99-.43c.35-.08.64.11.71.46l3.67 16.95c.05.23.19.33.43.28l14.78-3.2c.23-.05.33-.19.28-.43l-4.27-19.7c-.08-.35.11-.64.46-.71l1.99-.43c.35-.08.64.11.71.46l4.94 22.81c.08.35-.11.64-.46.71l-38.69 8.37zm36.75-81.53c-.05.36-.26.51-.69.56l-34.46 4.52-.02.12 31.64 14.41c.4.18.55.38.5.74l-.28 1.9c-.05.36-.33.56-.7.62L.59 180.41c-.43.06-.64-.16-.58-.57l.32-2.14c.07-.47.28-.69.71-.68l34.41-3.01.02-.12-31.85-14.26c-.4-.18-.55-.38-.49-.8l.26-1.78c.06-.42.27-.57.7-.62l34.63-4.5.02-.12L6.66 139.1c-.46-.19-.55-.38-.48-.86l.32-2.14c.06-.42.33-.56.72-.38l37.69 15.37c.35.11.55.38.5.74l-.28 1.97zm-32.74-30.03c-.34-.12-.48-.43-.36-.77l.76-2.09c.12-.34.43-.48.77-.36l37.2 13.58c.34.12.48.43.36.77l-.76 2.09c-.12.34-.43.48-.77.36l-37.2-13.58zm46.41-5.93c-.17.32-.5.41-.81.24L25.8 100.67c-.21-.11-.37-.07-.49.15l-5.6 10.34c-.17.32-.5.41-.81.24l-1.79-.97c-.32-.17-.41-.5-.24-.81L30.03 85.3c.17-.32.5-.41.81-.24l1.79.97c.32.17.41.5.24.81l-5.59 10.33c-.11.21-.07.37.15.49l32.19 17.42c.32.17.41.5.24.81l-1.06 1.95zm-20.37-43.6c-.27-.24-.29-.58-.06-.85l1.46-1.67c.24-.27.58-.29.85-.06l13.17 11.55c.18.16.35.15.51-.03l13.29-15.16c.16-.18.15-.35-.03-.51L54.45 55.96c-.27-.24-.29-.58-.06-.85l1.46-1.67c.24-.27.58-.29.85-.06l29.77 26.11c.27.24.29.58.06.85l-1.46 1.67c-.24.27-.58.29-.85.06L70.6 70.12c-.18-.16-.35-.15-.51.03L56.8 85.31c-.16.18-.15.35.03.51l13.62 11.95c.27.24.29.58.06.85l-1.46 1.67c-.24.27-.58.29-.85.06L38.43 74.24zm46.44-43.31c-.18-.31-.09-.64.22-.82l20.24-11.63c.31-.18.64-.09.82.22l1.02 1.77c.18.31.09.64-.22.82L89.47 31.34c-.21.12-.25.28-.13.49l7.23 12.59c.12.21.28.25.49.13l15.04-8.64c.31-.18.64-.09.82.22l1.02 1.77c.18.31.09.64-.22.82l-15.04 8.64c-.21.12-.25.28-.13.49l7.53 13.11c.12.21.28.25.49.13l17.48-10.04c.31-.18.64-.09.82.22l1.02 1.77c.18.31.09.64-.22.82l-20.24 11.63c-.31.18-.64.09-.82-.22L84.87 30.93zm57.78 16.98c-.34.11-.59-.07-.81-.38l-24.5-33.63c-.39-.45-.25-.8.15-.93l2.01-.62c.52-.16.72-.1 1.04.31L142 42.14l.11-.04.84-36.36c.03-.51.17-.68.63-.82l2.06-.64c.4-.12.72.09.71.66l-1.24 41.57c-.01.38-.17.68-.51.79l-1.95.61zm16.51-45.25c-.03-.36.19-.62.55-.65L182.97 0c.36-.03.62.19.65.55l.18 2.03c.03.36-.19.62-.55.65l-20.09 1.73c-.24.02-.35.15-.33.39l1.25 14.47c.02.24.15.35.39.33l17.28-1.49c.36-.03.62.19.65.55l.18 2.03c.03.36-.19.62-.55.65l-17.28 1.49c-.24.02-.35.15-.33.39l1.3 15.07c.02.24.15.35.39.33l20.09-1.73c.36-.03.62.19.65.55l.18 2.03c.03.36-.19.62-.55.65l-23.26 2.01c-.36.03-.62-.19-.65-.55l-3.41-39.47zm56.99 41.24c-.36-.05-.52-.19-.64-.63l-6.23-18.65-.59-.08-10.41-1.35c-.24-.03-.37.07-.4.31l-2.22 17.13c-.05.36-.32.56-.67.52l-2.2-.29c-.36-.05-.56-.32-.52-.67l5.1-39.27c.05-.36.32-.56.67-.52l13.55 1.77c7.62.99 11.76 5.88 10.86 12.78-.73 5.59-4.32 9.06-9.66 9.64l6.48 19.05c.19.39-.03.66-.38.62l-2.74-.36zm2.91-29.39c.66-5.06-2.18-8.39-7.95-9.14l-10.35-1.34c-.24-.03-.37.07-.4.31l-1.98 15.23c-.03.24.07.37.31.4l10.35 1.34c5.77.76 9.35-1.68 10.02-6.8zm13.84 34.46c-.34-.12-.49-.43-.37-.77l5.35-15.23-3.79-26.13c-.01-.32.28-.6.67-.46l2.21.78c.45.16.58.33.65.86l3.22 21.8.17.06 15.97-15.06c.39-.37.6-.43 1.05-.27l2.15.76c.45.16.45.54.23.78l-19.3 18.02-5.35 15.23c-.12.34-.43.49-.77.37l-2.09-.74zm20.77-1.25c.5-2.22 1.45-4.73 5.08-10.74s5.4-8.02 7.14-9.5c4.8-4.11 10.34-4.48 16.05-1.04 5.65 3.41 7.91 8.49 6.51 14.65-.5 2.22-1.45 4.73-5.08 10.74s-5.4 8.02-7.13 9.5c-4.8 4.11-10.34 4.48-16 1.07-5.71-3.44-7.97-8.52-6.57-14.68zm31.45-7.52c1.04-4.63-.54-8.39-4.86-10.99-4.37-2.64-8.43-2.29-12.04.79-1.3 1.11-3.08 3.12-6.49 8.77-3.41 5.65-4.36 8.16-4.74 9.83-1.04 4.63.54 8.39 4.91 11.02 4.32 2.6 8.38 2.25 11.99-.82 1.3-1.11 3.08-3.12 6.49-8.77 3.41-5.65 4.37-8.16 4.74-9.83zm20.52 4.11c.25-.26.59-.26.85-.01l1.58 1.56c.3.29.47.63.31 1.14l-9.06 38.17.13.13 23.54-23.89c.25-.26.59-.26.85-.01l1.58 1.56c.26.25.26.59.01.85l-27.79 28.21c-.25.26-.59.26-.85.01l-1.67-1.64c-.26-.25-.43-.59-.31-1.14l9.22-38.08-.17-.17-23.58 23.93c-.25.26-.59.26-.85.01l-1.58-1.56c-.26-.25-.26-.59-.01-.85l27.8-28.22zm29.7 32.23c.3-.19.63-.12.83.18l12.61 19.64c.19.3.12.63-.18.83l-1.72 1.1c-.3.19-.63.12-.83-.18l-10.9-16.96c-.13-.2-.29-.24-.5-.11l-12.21 7.85c-.2.13-.24.3-.11.5l9.37 14.59c.2.3.12.63-.18.83l-1.72 1.1c-.3.19-.63.12-.83-.18l-9.37-14.59c-.13-.2-.3-.24-.5-.11l-12.72 8.17c-.2.13-.24.3-.11.5l10.89 16.96c.19.3.12.63-.18.83l-1.72 1.1c-.3.19-.63.12-.83-.18l-12.61-19.64c-.19-.3-.12-.63.18-.83l33.34-21.4zm-10.4 69.83c-.09-.35.07-.64.42-.74l15.57-4.24 19.37-17.95c.26-.19.65-.12.76.29l.61 2.26c.13.46.06.67-.34 1.03l-16.12 15.02.05.17 21.46 4.61c.53.11.69.25.82.71l.6 2.2c.12.46-.19.67-.51.64l-25.79-5.67-15.57 4.24c-.35.09-.64-.07-.74-.42l-.59-2.15zm12.82 16.42c2.11-.85 4.72-1.49 11.73-1.92s9.67-.11 11.87.48c6.11 1.61 9.56 5.97 9.96 12.62.4 6.59-2.5 11.33-8.36 13.67-2.11.85-4.72 1.49-11.73 1.92s-9.67.11-11.87-.48c-6.11-1.61-9.56-5.97-9.96-12.56-.4-6.64 2.5-11.39 8.36-13.73zm24.04 21.62c4.4-1.77 6.6-5.21 6.29-10.24-.31-5.09-2.91-8.24-7.49-9.46-1.65-.44-4.31-.76-10.9-.36s-9.19 1.04-10.78 1.68c-4.4 1.77-6.6 5.21-6.29 10.3.31 5.03 2.9 8.18 7.49 9.4 1.65.44 4.31.76 10.9.36s9.2-1.04 10.78-1.68zm-18.02 17.67c-7.57-1.3-11.9 1.91-13 8.3-1.11 6.45 1.9 10.92 9.46 12.22l25.78 4.44c.36.06.55.34.49.69l-.38 2.19c-.06.35-.34.55-.69.49l-25.72-4.43c-9.81-1.69-13.57-7.82-12.13-16.15 1.42-8.28 7.01-12.79 16.83-11.11l25.72 4.43c.35.06.55.34.49.69l-.38 2.19c-.06.35-.34.55-.69.49l-25.78-4.44zm9.52 61.68c.32.17.41.5.24.81l-1.05 1.95c-.17.32-.5.41-.81.24l-32.21-17.39c-.21-.11-.37-.07-.49.15l-9.58 17.74c-.17.32-.5.41-.81.24l-1.79-.97c-.32-.17-.41-.5-.24-.81l11.09-20.54c.17-.32.5-.41.81-.24l34.84 18.82zm-42.23 10.38c2.11.85 4.43 2.2 9.78 6.74 5.35 4.55 7.05 6.62 8.23 8.57 3.29 5.39 2.76 10.93-1.56 16-4.28 5.03-9.65 6.44-15.51 4.07-2.11-.85-4.43-2.2-9.78-6.74s-7.05-6.62-8.23-8.57c-3.29-5.4-2.76-10.93 1.52-15.96 4.32-5.07 9.7-6.48 15.55-4.11zm2.36 32.25c4.4 1.77 8.37.81 11.63-3.03 3.3-3.89 3.61-7.96 1.16-12.01-.88-1.46-2.58-3.54-7.61-7.81-5.03-4.28-7.35-5.62-8.93-6.26-4.4-1.77-8.37-.81-11.67 3.07-3.26 3.84-3.57 7.91-1.12 11.97.88 1.46 2.59 3.54 7.61 7.81 5.02 4.28 7.35 5.62 8.93 6.26zm-39.24-6.94c.29-.22.58-.14.89.08l34.59 23.14c.52.28.51.67.17.92l-1.67 1.27c-.43.33-.65.34-1.08.07l-30.3-20.29-.1.07 11.73 34.43c.15.49.08.7-.31.99l-1.72 1.31c-.33.25-.71.16-.89-.38l-13.15-39.46c-.12-.36-.08-.7.21-.91l1.63-1.24zm.12 48.15c.15.33.04.65-.29.8l-21.13 9.91c-.33.15-.65.04-.8-.29l-.87-1.85c-.15-.33-.04-.65.29-.8l18.25-8.56c.22-.1.27-.26.17-.48l-6.16-13.15c-.1-.22-.26-.28-.48-.17l-15.7 7.36c-.33.15-.64.04-.8-.29l-.87-1.85c-.15-.33-.04-.65.29-.8l15.7-7.36c.22-.1.27-.26.17-.48l-6.42-13.69c-.1-.22-.26-.27-.48-.17l-18.25 8.56c-.33.15-.64.04-.8-.29l-.87-1.85c-.15-.33-.04-.65.29-.8l21.13-9.91c.33-.15.65-.04.8.29l16.83 35.87zm-100.69-18.34c.42.01.6.19.77.55l10.22 17.63h.06l10.84-17.29c.19-.36.43-.53.79-.53l2.7.04c.36.01.48.31.29.67l-12.76 20.56 10.85 18.9c.23.36.05.66-.31.66l-2.7-.04c-.42-.01-.6-.19-.77-.55l-9.05-15.57h-.06l-9.55 15.27c-.25.36-.43.53-.79.53l-2.7-.04c-.36-.01-.48-.31-.29-.66l11.52-18.54-12.14-20.96c-.17-.36-.05-.66.37-.65l2.71.02z"/></svg>