<svg xmlns="http://www.w3.org/2000/svg" viewBox="0 0 168.06 42" style="enable-background:new 0 0 168.06 42" xml:space="preserve"><path d="M.21 37.26c-.24-.24-.3-.6-.06-.84l1.44-1.8c.24-.3.6-.3.84-.06 2.7 2.1 6.96 4.2 11.7 4.2 6.54 0 10.56-3.3 10.56-8.34 0-4.02-2.28-6.96-9.78-7.92l-1.86-.24C5.07 21.24 1.29 17.4 1.29 11.46 1.29 4.38 6.33 0 14.13 0c4.5 0 8.82 1.38 11.64 3.42.3.18.36.54.12.84l-1.2 1.86c-.24.3-.54.3-.84.12-3.24-1.98-6.42-3-9.9-3-5.82 0-9.24 3.24-9.24 7.98 0 4.14 2.64 6.84 9.6 7.74l1.86.24c8.28 1.08 11.94 4.92 11.94 10.98 0 6.9-4.92 11.82-14.4 11.82-5.34.01-10.68-2.28-13.5-4.74zM35.66 1.21c0-.36.24-.6.6-.6h2.22c.36 0 .6.24.6.6v17.52c0 .24.12.36.36.36H59.6c.24 0 .36-.12.36-.36V1.21c0-.36.24-.6.6-.6h2.22c.36 0 .6.24.6.6v39.6c0 .36-.24.6-.6.6h-2.22c-.36 0-.6-.24-.6-.6V22.69c0-.24-.12-.36-.36-.36H39.44c-.24 0-.36.12-.36.36v18.12c0 .36-.24.6-.6.6h-2.22c-.36 0-.6-.24-.6-.6V1.21zm48.61 0c.12-.36.36-.6.72-.6h2.16c.42 0 .6.24.72.6l14.16 39.6c.12.36-.06.6-.42.6h-2.34c-.42 0-.66-.12-.78-.6l-3.6-10.02H77.13l-3.6 10.02c-.18.48-.42.6-.78.6h-2.34c-.36 0-.54-.24-.42-.6l14.28-39.6zm9.48 26.28L86.13 6.13h-.18l-7.68 21.36h15.48zm39.07 13.91c-.36 0-.54-.12-.72-.54l-8.58-17.7h-11.1c-.24 0-.36.12-.36.36V40.8c0 .36-.24.6-.6.6h-2.22c-.36 0-.6-.24-.6-.6V1.2c0-.36.24-.6.6-.6h13.68c7.68 0 12.42 4.32 12.42 11.28 0 5.64-3.12 9.54-8.34 10.8l8.88 18.06c.24.36.06.66-.3.66h-2.76zm-.9-29.51c0-5.1-3.24-8.04-9.06-8.04h-10.44c-.24 0-.36.12-.36.36v15.36c0 .24.12.36.36.36h10.44c5.82 0 9.06-2.88 9.06-8.04zm11.6-10.68c0-.36.24-.6.6-.6h23.34c.36 0 .6.24.6.6v2.04c0 .36-.24.6-.6.6H147.3c-.24 0-.36.12-.36.36v14.52c0 .24.12.36.36.36h17.34c.36 0 .6.24.6.6v2.04c0 .36-.24.6-.6.6H147.3c-.24 0-.36.12-.36.36v15.12c0 .24.12.36.36.36h20.16c.36 0 .6.24.6.6v2.04c0 .36-.24.6-.6.6h-23.34c-.36 0-.6-.24-.6-.6V1.21z" style="fill:#020203"/></svg>